<svg xmlns="http://www.w3.org/2000/svg" width="200" height="200" viewBox="0 0 519 515">
  <g id="Grupo_1" data-name="Grupo 1" transform="translate(-764 -25)">
    <path id="Retângulo_17" data-name="Retângulo 17" d="M249,0h11a0,0,0,0,1,0,0V260a0,0,0,0,1,0,0H0a0,0,0,0,1,0,0V249A249,249,0,0,1,249,0Z" transform="translate(764 25)" fill="#ffd60a"/>
    <path id="Retângulo_18" data-name="Retângulo 18" d="M0,0H260a0,0,0,0,1,0,0V11A249,249,0,0,1,11,260H0a0,0,0,0,1,0,0V0A0,0,0,0,1,0,0Z" transform="translate(764 280)" fill="#2c8ecf"/>
    <path id="Retângulo_19" data-name="Retângulo 19" d="M0,0H10A249,249,0,0,1,259,249v11a0,0,0,0,1,0,0H0a0,0,0,0,1,0,0V0A0,0,0,0,1,0,0Z" transform="translate(1024 25)" fill="#db2b55"/>
    <path id="Retângulo_20" data-name="Retângulo 20" d="M0,0H259a0,0,0,0,1,0,0V11A249,249,0,0,1,10,260H0a0,0,0,0,1,0,0V0A0,0,0,0,1,0,0Z" transform="translate(1024 280)" fill="#1cdc9f"/>
  </g>
</svg>
